<svg width="14" height="9" viewBox="0 0 14 9" fill="none" xmlns="http://www.w3.org/2000/svg">
<path d="M6.55529 1.70357C5.63294 1.89643 4.79843 2.30357 4.05176 2.925C3.32706 3.525 2.83294 4.22143 2.56941 5.01429C3.84314 5.01429 4.48 5.63571 4.48 6.87857C4.48 8.29286 3.71137 9 2.17412 9C1.49333 9 0.955294 8.81786 0.56 8.45357C0.186667 8.06786 0 7.54286 0 6.87857C0 6.12857 0.131765 5.4 0.395294 4.69286C0.658823 3.96429 1.02118 3.28929 1.48235 2.66786C1.96549 2.04643 2.52549 1.51071 3.16235 1.06071C3.82118 0.589285 4.52392 0.235714 5.27059 0L6.55529 1.70357ZM14 1.70357C13.0776 1.89643 12.2431 2.30357 11.4965 2.925C10.7718 3.525 10.2776 4.22143 10.0141 5.01429C11.2878 5.01429 11.9247 5.63571 11.9247 6.87857C11.9247 8.29286 11.1561 9 9.61882 9C8.93804 9 8.4 8.81786 8.00471 8.45357C7.63137 8.06786 7.44471 7.54286 7.44471 6.87857C7.44471 6.12857 7.57647 5.4 7.84 4.69286C8.10353 3.96429 8.46588 3.28929 8.92706 2.66786C9.4102 2.04643 9.9702 1.51071 10.6071 1.06071C11.2659 0.589285 11.9686 0.235714 12.7153 0L14 1.70357Z" fill="#21A137"/>
</svg>
