<svg width="22" height="22" viewBox="0 0 22 22" fill="none" xmlns="http://www.w3.org/2000/svg">
<path d="M11.0002 5.2771C7.89534 5.2771 5.32275 7.80532 5.32275 10.9545C5.32275 14.1037 7.85098 16.6319 11.0002 16.6319C14.1494 16.6319 16.6776 14.0594 16.6776 10.9545C16.6776 7.84968 14.105 5.2771 11.0002 5.2771ZM11.0002 14.5916C9.00421 14.5916 7.36308 12.9505 7.36308 10.9545C7.36308 8.95855 9.00421 7.31742 11.0002 7.31742C12.9961 7.31742 14.6373 8.95855 14.6373 10.9545C14.6373 12.9505 12.9961 14.5916 11.0002 14.5916Z" fill="#7C7F81"/>
<path d="M16.9001 6.43171C17.6105 6.43171 18.1863 5.85582 18.1863 5.14542C18.1863 4.43502 17.6105 3.85913 16.9001 3.85913C16.1897 3.85913 15.6138 4.43502 15.6138 5.14542C15.6138 5.85582 16.1897 6.43171 16.9001 6.43171Z" fill="#7C7F81"/>
<path d="M20.2258 1.81855C19.0726 0.620967 17.4315 0 15.5685 0H6.43145C2.57258 0 0 2.57258 0 6.43145V15.5242C0 17.4315 0.620968 19.0726 1.8629 20.2702C3.06048 21.4234 4.65726 22 6.47581 22H15.5242C17.4315 22 19.0282 21.379 20.1815 20.2702C21.379 19.1169 22 17.4758 22 15.5685V6.43145C22 4.56855 21.379 2.97177 20.2258 1.81855ZM20.0484 15.5685C20.0484 16.9435 19.5605 18.0524 18.7621 18.8065C17.9637 19.5605 16.8548 19.9597 15.5242 19.9597H6.47581C5.14516 19.9597 4.03629 19.5605 3.2379 18.8065C2.43952 18.0081 2.04032 16.8992 2.04032 15.5242V6.43145C2.04032 5.10081 2.43952 3.99194 3.2379 3.19355C3.99194 2.43952 5.14516 2.04032 6.47581 2.04032H15.6129C16.9435 2.04032 18.0524 2.43952 18.8508 3.2379C19.6048 4.03629 20.0484 5.14516 20.0484 6.43145V15.5685Z" fill="#7C7F81"/>
</svg>
