<svg width="13" height="22" viewBox="0 0 13 22" fill="none" xmlns="http://www.w3.org/2000/svg">
<path d="M11.5556 11C10.8333 11 9.38889 12.4667 6.5 12.4667C3.61111 12.4667 2.16667 11 1.44444 11C0.647111 11 0 11.6571 0 12.4667C0 13.2 0.410222 13.5527 0.722222 13.7383C1.57806 14.2465 4.33333 15.4 4.33333 15.4L1.26389 19.3879C1.26389 19.3879 0.722222 20.0735 0.722222 20.5333C0.722222 21.3429 1.36933 22 2.16667 22C2.90406 22 3.23844 21.5189 3.23844 21.5189C3.23844 21.5189 6.49494 17.5949 6.5 17.6C6.50506 17.5949 9.76156 21.5189 9.76156 21.5189C9.76156 21.5189 10.0959 22 10.8333 22C11.6307 22 12.2778 21.3429 12.2778 20.5333C12.2778 20.0735 11.7361 19.3879 11.7361 19.3879L8.66667 15.4C8.66667 15.4 11.4219 14.2465 12.2778 13.7383C12.5898 13.5527 13 13.2 13 12.4667C13 11.6571 12.3529 11 11.5556 11Z" fill="#7C7F81"/>
<path d="M6.49989 0C3.70778 0 1.44434 2.29827 1.44434 5.13333C1.44434 7.9684 3.70778 10.2667 6.49989 10.2667C9.29128 10.2667 11.5554 7.9684 11.5554 5.13333C11.5554 2.29827 9.29128 0 6.49989 0ZM6.49989 7.7C5.10384 7.7 3.97211 6.5516 3.97211 5.13333C3.97211 3.7158 5.10384 2.56667 6.49989 2.56667C7.89522 2.56667 9.02767 3.7158 9.02767 5.13333C9.02767 6.5516 7.89522 7.7 6.49989 7.7Z" fill="#7C7F81"/>
</svg>
