<svg width="22" height="13" viewBox="0 0 22 13" fill="none" xmlns="http://www.w3.org/2000/svg">
<path d="M21.4986 0.881562C21.6497 0.37375 21.4986 0 20.7716 0H18.3661C17.7535 0 17.4717 0.320937 17.3206 0.678437C17.3206 0.678437 16.0954 3.64812 14.3637 5.57375C13.8042 6.13031 13.5469 6.30906 13.2406 6.30906C13.0895 6.30906 12.8567 6.13031 12.8567 5.6225V0.881562C12.8567 0.272187 12.6852 0 12.1787 0H8.39687C8.01297 0 7.78426 0.284375 7.78426 0.548437C7.78426 1.12531 8.65009 1.25937 8.73993 2.88437V6.41062C8.73993 7.1825 8.60108 7.32469 8.29477 7.32469C7.47795 7.32469 5.49309 4.34281 4.31687 0.930313C4.08 0.268125 3.84721 0 3.23051 0H0.824984C0.138859 0 0 0.320937 0 0.678437C0 1.31219 0.816816 4.46063 3.80228 8.62063C5.79123 11.4603 8.59291 13 11.1414 13C12.6729 13 12.8608 12.6587 12.8608 12.0697C12.8608 9.35594 12.7219 9.1 13.4897 9.1C13.845 9.1 14.4577 9.27875 15.8871 10.6478C17.5207 12.2728 17.7903 13 18.7051 13H21.1106C21.7967 13 22.1439 12.6587 21.9438 11.9844C21.4864 10.5666 18.3947 7.64969 18.2558 7.45469C17.9005 6.99969 18.0026 6.79656 18.2558 6.39031C18.2599 6.38625 21.1964 2.275 21.4986 0.881562Z" fill="#7C7F81"/>
</svg>
